<svg xmlns="http://www.w3.org/2000/svg" width="124" height="20" viewBox="0 0 124 20">
  <metadata><?xpacket begin="﻿" id="W5M0MpCehiHzreSzNTczkc9d"?>
<x:xmpmeta xmlns:x="adobe:ns:meta/" x:xmptk="Adobe XMP Core 5.6-c138 79.159824, 2016/09/14-01:09:01        ">
   <rdf:RDF xmlns:rdf="http://www.w3.org/1999/02/22-rdf-syntax-ns#">
      <rdf:Description rdf:about=""/>
   </rdf:RDF>
</x:xmpmeta>
                                                                                                    
                                                                                                    
                                                                                                    
                                                                                                    
                                                                                                    
                                                                                                    
                                                                                                    
                                                                                                    
                                                                                                    
                                                                                                    
                                                                                                    
                                                                                                    
                                                                                                    
                                                                                                    
                                                                                                    
                                                                                                    
                                                                                                    
                                                                                                    
                                                                                                    
                                                                                                    
                           
<?xpacket end="w"?></metadata>
<defs>
    <style>
      .cls-1 {
        fill: #a50034;
        stroke: #a50034;
        stroke-width: 1px;
        fill-rule: evenodd;
      }
    </style>
  </defs>
  <path id="Shape_1_copy_4" data-name="Shape 1 copy 4" class="cls-1" d="M11.028,0.011l3.639,6.279,7.4,1.354-5.152,5.239L17.852,20l-6.824-3.048L4.2,20,5.14,12.883-0.012,7.644l7.4-1.354,3.639-6.279m25.481,0,3.639,6.279,7.4,1.354L42.4,12.883,43.332,20l-6.823-3.048L29.686,20l0.935-7.119L25.469,7.644l7.4-1.354,3.639-6.279m25.481,0,3.639,6.279,7.4,1.354-5.152,5.239L68.813,20,61.99,16.954,55.166,20,56.1,12.883,50.949,7.644l7.4-1.354L61.99,0.011m25.481,0L91.11,6.291l7.4,1.354-5.152,5.239L94.294,20,87.47,16.954,80.647,20l0.935-7.119L76.43,7.644l7.4-1.354L87.47,0.011m25.481,0,3.639,6.279,7.4,1.354-5.152,5.239L119.774,20l-6.823-3.048L106.128,20l0.935-7.119-5.152-5.239,7.4-1.354,3.639-6.279"/>
</svg>
