<?xml version="1.0" encoding="utf-8"?>
<!-- Generator: Adobe Illustrator 23.0.0, SVG Export Plug-In . SVG Version: 6.00 Build 0)  -->
<svg version="1.1" id="레이어_1" xmlns="http://www.w3.org/2000/svg" xmlns:xlink="http://www.w3.org/1999/xlink" x="0px"
	 y="0px" width="20px" height="20px" viewBox="0 0 20 20" style="enable-background:new 0 0 20 20;" xml:space="preserve">
<style type="text/css">
	.st0{fill-rule:evenodd;clip-rule:evenodd;fill:#A50034;}
</style>
<path class="st0" d="M10,17.5c-0.2,0-0.5-0.1-0.7-0.2C8.3,16.4,3.2,12,2,9.6C1.4,8.3,1.3,6.9,1.8,5.5C2.2,4.4,3,3.5,4.1,3
	c0.7-0.3,1.5-0.5,2.3-0.5C7.7,2.5,9,3,10,3.9c1-0.9,2.3-1.4,3.6-1.4c0.8,0,1.6,0.2,2.3,0.5c1.1,0.5,1.9,1.4,2.3,2.5
	c0.5,1.3,0.4,2.8-0.2,4.1c-1.2,2.5-6.7,7.1-7.3,7.7c-0.2,0.2-0.4,0.2-0.6,0.3C10.1,17.5,10,17.5,10,17.5z M9.7,16.1L9.7,16.1
	L9.7,16.1z"/>
</svg>
