<svg xmlns="http://www.w3.org/2000/svg" width="64" height="64" viewBox="0 0 64 64">
  <defs>
    <style>
      .cls-1 {
        fill: #333;
        fill-rule: evenodd;
      }
    </style>
  </defs>
  <path id="email" class="cls-1" d="M1235.9,1979.41a1.921,1.921,0,0,1,.1.59v36a2.006,2.006,0,0,1-2,2h-52a2.006,2.006,0,0,1-2-2v-36a2.051,2.051,0,0,1,.1-0.61,0.979,0.979,0,0,1,1.31-1.29,1.871,1.871,0,0,1,.59-0.1h52a1.839,1.839,0,0,1,.62.11,0.963,0.963,0,0,1,1.26.39A1.007,1.007,0,0,1,1235.9,1979.41Zm-37.46,16.06L1183.11,2016h49.78l-15.33-20.53-8.74,7.59a0.985,0.985,0,0,1-.67.41,0.66,0.66,0,0,1-.14.01,1.408,1.408,0,0,1-.2-0.01,1.05,1.05,0,0,1-.23-0.08,0.212,0.212,0,0,1-.07-0.03l-0.04-.02a1.624,1.624,0,0,1-.2-0.18ZM1182,2014.44l15.06-20.17-15.06-13.1v33.27Zm1.65-34.44,24.35,21.19,24.39-21.19h-48.74Zm50.35,1.18-15.06,13.09,15.06,20.17v-33.26Z" transform="translate(-1176 -1966)"/>
</svg>
