<svg xmlns="http://www.w3.org/2000/svg" width="64" height="64" viewBox="0 0 64 64">
  <defs>
    <style>
      .cls-1 {
        fill: #333;
        fill-rule: evenodd;
      }
    </style>
  </defs>
  <path id="find-service-center-l" class="cls-1" d="M998,2623c-15.464,0-28-4.03-28-9,0-4.08,8.43-7.52,19.992-8.63,0.729,1.4.055,0.07,0.969,1.89-10.94.82-18.961,3.53-18.961,6.74,0,3.86,11.64,7,26,7s26-3.14,26-7c0-3.22-8.06-5.93-19.03-6.75,0.97-1.78.05-.15,1-1.88,11.58,1.1,20.03,4.55,20.03,8.63C1026,2618.97,1013.46,2623,998,2623Zm1.078-12.74A1.884,1.884,0,0,1,998,2611a1.92,1.92,0,0,1-1.118-.74A95.586,95.586,0,0,1,986,2598c-2.895-4-5-10.48-5-14a17,17,0,0,1,34,0c0,3.54-2.07,9.98-5,14A97.352,97.352,0,0,1,999.078,2610.26ZM998,2569a15.13,15.13,0,0,0-15,15c0,2.61,2.469,9.5,5,13a89.571,89.571,0,0,0,9.042,10.38,1.629,1.629,0,0,0,.958.65,1.566,1.566,0,0,0,.924-0.65A81.335,81.335,0,0,0,1008,2597c2.49-3.56,5-10.46,5-13A15.129,15.129,0,0,0,998,2569Zm0,22a6,6,0,1,1,6-6A5.94,5.94,0,0,1,998,2591Zm0-10a4,4,0,1,0,4,4A4.268,4.268,0,0,0,998,2581Z" transform="translate(-966 -2563)"/>
</svg>
