<svg xmlns="http://www.w3.org/2000/svg" width="64" height="64" viewBox="0 0 64 64">
  <defs>
    <style>
      .cls-1 {
        fill: #333;
        fill-rule: evenodd;
      }
    </style>
  </defs>
  <path id="Help_Library" data-name="Help Library" class="cls-1" d="M986,1625H938v35h30v2H938a2.209,2.209,0,0,1-2-2v-35a2.064,2.064,0,0,1,2-2h48a2.14,2.14,0,0,1,2,2v23l-2-1v-22Zm-32,40h3.25l0.75-3h2l-0.75,3h5.5l-0.75-3h2l0.75,3H968l1,2H954A1,1,0,0,1,954,1665Zm9-8a1,1,0,1,1-1-1A1,1,0,0,1,963,1657Zm7-5-1.942,2H940v-27h44v20h-2v-18H942v23h28Zm11-3a11,11,0,1,1-11,11A11,11,0,0,1,981,1649Zm0,20a9,9,0,1,0-9-9A8.806,8.806,0,0,0,981,1669Zm0.028-15c1.812,0,3.974,1.08,3.974,3.44,0,1.71-1.632,2.34-2,2.56a4.032,4.032,0,0,0-1,1v2h-2s-0.019-1.71,0-2c0.052-.8.8-1.38,2-2,0.43-.22,1-0.25,1-1.72,0-.65-0.852-1.28-2-1.28a2.111,2.111,0,0,0-2,2h-2A4.047,4.047,0,0,1,981.028,1654ZM982,1666h-2v-2h2v2Z" transform="translate(-932 -1615)"/>
</svg>
