<svg xmlns="http://www.w3.org/2000/svg" width="64" height="64" viewBox="0 0 64 64">
  <defs>
    <style>
      .cls-1 {
        fill: #333;
        fill-rule: evenodd;
      }
    </style>
  </defs>
  <path id="warranty_Information" data-name="warranty Information" class="cls-1" d="M1318.6,1671.78c-0.39.22-.54,0.12-1.35-0.36l-4.03-1.07-1.57,3.15c-0.02.95,0.12,1.06-.36,1.34a0.91,0.91,0,0,1-1.34-.36c-0.36-.61-3.09-5.3-3.78-6.49-0.06,0-.11.01-0.17,0.01s-0.12-.01-0.17-0.01c-0.69,1.19-3.42,5.88-3.78,6.49a0.91,0.91,0,0,1-1.34.36c-0.48-.28-0.34-0.39-0.36-1.34l-1.57-3.15-4.03,1.07c-0.81.48-.96,0.58-1.35,0.36a1.371,1.371,0,0,1-.36-1.34l4.65-7.99a9,9,0,1,1,16.62,0l4.65,7.99A1.371,1.371,0,0,1,1318.6,1671.78Zm-22.38-2.9,4.03-1.07,1.57,3.16,1.48-2.54-4.62-3.78ZM1306,1652a7,7,0,1,0,7,7A7.182,7.182,0,0,0,1306,1652Zm7.32,12.65-4.62,3.78,1.48,2.54,1.57-3.16,4.03,1.07ZM1295,1655h-20a1,1,0,0,1,0-2h20A1,1,0,0,1,1295,1655Zm1-7a1,1,0,0,1-1,1h-20a1,1,0,0,1-1-1h0a1,1,0,0,1,1-1h20a1,1,0,0,1,1,1h0Zm-21-11a1,1,0,0,1,0-2h10a1,1,0,0,1,0,2h-10Zm21,5a1,1,0,0,1-1,1h-20a1,1,0,0,1,0-2h20A1,1,0,0,1,1296,1642Zm9-11h-10v-10h-30v48h26l-2,2h-24a2.006,2.006,0,0,1-2-2v-48a2,2,0,0,1,2-2h32l10,10v19h-2v-17Zm-8-9v7h7Z" transform="translate(-1259 -1615)"/>
</svg>
