<svg xmlns="http://www.w3.org/2000/svg" width="64" height="64" viewBox="0 0 64 64">
  <defs>
    <style>
      .cls-1 {
        fill: #333;
        fill-rule: evenodd;
      }
    </style>
  </defs>
  <path id="live_chat" data-name="live chat" class="cls-1" d="M418,2015h-2v3.99a0.973,0.973,0,0,1-.076.38,0.992,0.992,0,0,1-1.644.32l-8.187-4.69H389a2,2,0,0,1-2-2v-3h0a1,1,0,0,1,2,0h0v3h18v0.3a0.014,0.014,0,0,1,.014.01l6.986,4V2014a1,1,0,0,1,1-1h3v-21h-8a1,1,0,0,1,0-2h8a2,2,0,0,1,2,2v21A2,2,0,0,1,418,2015Zm-13-8H379l-9.071,6.35a0.991,0.991,0,0,1-.929.65,1,1,0,0,1-1-1v-6h-2a2,2,0,0,1-2-2v-27a2,2,0,0,1,2-2h39a2,2,0,0,1,2,2v27A2,2,0,0,1,405,2007Zm0-29H366v27h3a1,1,0,0,1,1,1v5.3l9-6.3h26v-27Zm-31,19a1,1,0,0,1,1-1h11a1,1,0,0,1,0,2H375A1,1,0,0,1,374,1997Zm0-6a1,1,0,0,1,1-1h21a1,1,0,0,1,0,2H375A1,1,0,0,1,374,1991Zm22-5H375a1,1,0,0,1,0-2h21A1,1,0,0,1,396,1986Z" transform="translate(-360 -1966)"/>
</svg>
