<svg xmlns="http://www.w3.org/2000/svg" width="64" height="64" viewBox="0 0 64 64">
  <defs>
    <style>
      .cls-1 {
        fill: #333;
        fill-rule: evenodd;
      }
    </style>
  </defs>
  <path id="Manuals_and_Downloads" data-name="Manuals and Downloads" class="cls-1" d="M981,1534.99a0.972,0.972,0,0,1-.715-0.27,1.254,1.254,0,0,1-.144-0.22l-2.856-2.86a0.961,0.961,0,1,1,1.358-1.36l1.357,1.36V1524a1,1,0,0,1,2,0v7.64l1.358-1.36a0.961,0.961,0,1,1,1.358,1.36l-2.856,2.86a1.322,1.322,0,0,1-.145.22,0.971,0.971,0,0,1-.715.27m0,5.01a11,11,0,1,1,11-11A11,11,0,0,1,981,1540Zm0-20a9,9,0,1,0,9,9A9,9,0,0,0,981,1520Zm-13.1,13.83c0.031,0.05,0,.01.023,0.04A0.349,0.349,0,0,1,967.9,1533.83Zm0,0C967.78,1533.65,967.648,1533.43,967.9,1533.83ZM967,1532H941a1,1,0,0,1,0-2h26A1,1,0,0,1,967,1532Zm14-16a1.018,1.018,0,0,1-1-1v-29H952v15l-5-4-5,4v-15h-1a3.024,3.024,0,0,0-3,3v38a5.044,5.044,0,0,1,3-1h26a1,1,0,0,1,0,2H941c-1.425-.01-2.775,1.58-3,3a3.084,3.084,0,0,0,3,3h27a8.373,8.373,0,0,0,2,2H941a5.1,5.1,0,0,1-5-5v-42a5.1,5.1,0,0,1,5-5h39a2.3,2.3,0,0,1,2,2v29A1.019,1.019,0,0,1,981,1516Zm-37-30v11l2.976-2.54L950,1497v-11h-6Z" transform="translate(-932 -1480)"/>
</svg>
