<svg xmlns="http://www.w3.org/2000/svg" width="64" height="64" viewBox="0 0 64 64">
  <defs>
    <style>
      .cls-1 {
        fill: #333;
        fill-rule: evenodd;
      }
    </style>
  </defs>
  <path id="Register_Your_Product" data-name="Register Your Product" class="cls-1" d="M271,749a11,11,0,1,1,11-11A11,11,0,0,1,271,749Zm0-20a9,9,0,1,0,9,9A9,9,0,0,0,271,729Zm-0.2,12.555a1.023,1.023,0,0,1-.1.15,1.04,1.04,0,0,1-1.469,0l-2.939-2.939a1.039,1.039,0,0,1,1.469-1.469l2.291,2.29,4.3-4.3a0.96,0.96,0,0,1,1.357,1.357ZM246,718a3,3,0,0,1,0-6h10a3,3,0,0,1,0,6H246Zm11-3a1,1,0,0,0-1-1H246a1,1,0,0,0,0,2h10A1,1,0,0,0,257,715Zm17-7H228v33h30l1,2H227a1,1,0,0,1-1-1V707a1,1,0,0,1,1-1h-1l8-12a1,1,0,0,1,1-1h31a1,1,0,0,1,1,1l9,12h-1a1,1,0,0,1,1,1v19l-2-1V708Zm-24-13H236l-7,11h21V695Zm15,0H252v11h21Z" transform="translate(-222 -689)"/>
</svg>
