<svg xmlns="http://www.w3.org/2000/svg" width="64" height="64" viewBox="0 0 64 64">
  <defs>
    <style>
      .cls-1 {
        fill: #333;
        fill-rule: evenodd;
      }
    </style>
  </defs>
  <path id="Request_a_Repair_" data-name="Request a Repair " class="cls-1" d="M337.907,1862.67c0.839,4.64-3.651,7.99-7.907,8.33-0.177,0-.467.02-0.8,0.04l5.86,5.86a4.493,4.493,0,0,1,1.424,2.84,5.024,5.024,0,0,1-4.273,4.27,4.474,4.474,0,0,1-2.848-1.42l-6.41-6.4h0l-4.272,5.69a5.982,5.982,0,0,1-4.1,2.06,6.552,6.552,0,0,1-4.447-2.06,5.8,5.8,0,0,1-1.84-4.23,6.193,6.193,0,0,1,1.84-4.31l8.228-6.17a1.068,1.068,0,0,1-.4-0.23l-3.985-3.99a0.783,0.783,0,0,1-.136-0.21,4.064,4.064,0,0,1-1.288.21,3,3,0,0,1-2.136-.71l-2.137-2.13a1.066,1.066,0,0,1,0-1.43l2.849-2.84a1.063,1.063,0,0,1,1.424,0l2.137,2.13a3.192,3.192,0,0,1,.542,3.45,1.031,1.031,0,0,1,.17.11l3.985,3.98a1.018,1.018,0,0,1,.272.69l1.424-1.07a20.159,20.159,0,0,1-.272-2.46c0-3.95,3.234-8.9,8.184-8.67a17.782,17.782,0,0,1,1.786.13,0.969,0.969,0,0,1,.712.71,2.17,2.17,0,0,1,0,1.42l-1.424,1.43a3.257,3.257,0,0,0,0,4.26,3.341,3.341,0,0,0,4.273,0l1.424-1.42a2.169,2.169,0,0,1,1.424,0,1.068,1.068,0,0,1,.712.71C338.116,1862.01,337.77,1861.9,337.907,1862.67Zm-24.637-3.27-1.424-1.43-1.424,1.43,1.424,1.42a1.085,1.085,0,0,0,1.424,0A1.053,1.053,0,0,0,313.27,1859.4Zm17.516,21.77a2.17,2.17,0,0,0,2.848,0,2,2,0,0,0,.737-1.29,2.631,2.631,0,0,0-.737-1.56l-7.019-7.01-0.813,1.08-1.425,2.37Zm1.657-16.12a6.231,6.231,0,0,1-3.793-1.67,5.391,5.391,0,0,1,0-7.12c-3.994,0-5.7,3.41-5.7,7.12a13.714,13.714,0,0,0,.017,1.45,1.042,1.042,0,0,1-.017,1.39l-11.394,8.54a4.656,4.656,0,0,0-1.381,2.87,4.39,4.39,0,0,0,1.381,2.82,4.33,4.33,0,0,0,5.7,0l8.546-11.38a1.052,1.052,0,0,1,1.424,0,0.792,0.792,0,0,1,.119.18c0.437,0.01.88-.2,1.306-0.18,3.7,0.16,7.074-2.06,7.121-5.69A5.121,5.121,0,0,1,332.443,1865.05ZM314,1878.99a0.99,0.99,0,1,1,1.007-.99A1,1,0,0,1,314,1878.99ZM294,1864a1,1,0,1,1,1-1A1,1,0,0,1,294,1864Zm0-6a1,1,0,1,1,1-1A1,1,0,0,1,294,1858Zm0-12a1,1,0,1,1,1-1A1,1,0,0,1,294,1846Zm0,6a1,1,0,1,1,1-1A1,1,0,0,1,294,1852Zm4,12h0a1,1,0,0,1,0-2h9l2,2H298Zm0-6h0a1,1,0,0,1,0-2h10l-2,2h-8Zm0-12a1,1,0,0,1,0-2h16a1,1,0,0,1,0,2H298Zm16,6H298a1,1,0,0,1,0-2h16A1,1,0,0,1,314,1852Zm10-12H314v-10H284v48h22v2H284a2,2,0,0,1-2-2v-48a2,2,0,0,1,2-2h32l10,10v13l-2,2v-13Zm-8-9v7h7Z" transform="translate(-278 -1824)"/>
</svg>
