<svg xmlns="http://www.w3.org/2000/svg" width="64" height="64" viewBox="0 0 64 64">
  <defs>
    <style>
      .cls-1 {
        fill: #333;
        fill-rule: evenodd;
      }
    </style>
  </defs>
  <path id="software-drivers-l" class="cls-1" d="M1149,2619h-54a1,1,0,0,1-1-1v-12a1,1,0,0,1,1-1h54a1,1,0,0,1,1,1v12A1,1,0,0,1,1149,2619Zm-1-12h-52v10h52v-10Zm-17,4a1,1,0,1,1-1,1A1,1,0,0,1,1131,2611Zm4,0h8a1,1,0,0,1,0,2h-8A1,1,0,0,1,1135,2611Zm4.39-15.8a16.356,16.356,0,0,1-2.82,7.82c-0.94.04-.77-0.04-2.64,0.01a14.38,14.38,0,0,0,3.42-7.89C1137.42,2594.48,1139.46,2594.53,1139.39,2595.2ZM1128,2603c2.43-1.28,3.6-2.31,4.36-6.31,0.25-1.31,2.19-1.28,2.16.04a8.826,8.826,0,0,1-3.25,6.27C1129.75,2602.95,1130.38,2602.97,1128,2603Zm-22.36-12.16a15.935,15.935,0,0,1,14.68-14.68c0.68-.06.71,2,0.02,2.07a14.04,14.04,0,0,0-12.64,12.69C1107.63,2591.59,1105.58,2591.52,1105.64,2590.84ZM1127,2593a5,5,0,1,1-5-5A5,5,0,0,1,1127,2593Zm-8,0a3,3,0,1,0,3-3A3,3,0,0,0,1119,2593Zm-6.29-3.59c-0.24,1.31-2.2,1.26-2.18-.06,0.05-4.07,4.01-8.27,8.29-8.3a1.093,1.093,0,0,1,.04,2.18C1115.4,2583.26,1113.44,2585.39,1112.71,2589.41Zm26.61,13.6a20,20,0,1,0-34.61.06,8.387,8.387,0,0,0-2.35-.14,22.005,22.005,0,1,1,39.27,0C1140.74,2602.93,1139.85,2603.01,1139.32,2603.01Z" transform="translate(-1090 -2563)"/>
</svg>
