<svg xmlns="http://www.w3.org/2000/svg" width="64" height="64" viewBox="0 0 64 64">
  <defs>
    <style>
      .cls-1 {
        fill: #333;
        fill-rule: evenodd;
      }
    </style>
  </defs>
  <path id="telephone" class="cls-1" d="M687,1997a1,1,0,0,1-1-1,18,18,0,0,0-18-18,1,1,0,0,1,0-2,20,20,0,0,1,20,20A1,1,0,0,1,687,1997Zm-11-1a8,8,0,0,0-8-8,1,1,0,0,1,0-2,10,10,0,0,1,10,10A1,1,0,0,1,676,1996Zm-6.622,11.28a6.012,6.012,0,0,1,3.617-1.81c1.142-.1,1.878.19,3.361,1.02a34.525,34.525,0,0,1,6.257,4.46c1.564,1.49,2.279,2.71,2.39,4.08a5.751,5.751,0,0,1-1.629,4.25,11.583,11.583,0,0,1-3.283,2.81,13.859,13.859,0,0,1-3.884,1.58,17.791,17.791,0,0,1-3.3.32c-0.18,0-.345-0.01-0.488-0.01-3-.2-5.54-1.07-9.369-3.21a44.339,44.339,0,0,1-13.581-12.08,45.317,45.317,0,0,1-9.151-19.94,25.529,25.529,0,0,1-.3-4.51,13.338,13.338,0,0,1,3.169-7.79,12.966,12.966,0,0,1,2.033-2.02,11.486,11.486,0,0,1,4.078-2.25h0a5.888,5.888,0,0,1,2.461-.09,4.955,4.955,0,0,1,2.824,1.83c1.024,1.3,2.6,5,3.656,8.6a7.607,7.607,0,0,1,.335,2.9,4.058,4.058,0,0,1-.934,2.02c-0.79.94-1.623,1.45-4.079,2.71-0.834.43-1.593,0.83-1.731,0.91a0.22,0.22,0,0,0-.087.14c0.009,0,.095.26,0.226,0.56a51.479,51.479,0,0,0,10.9,15.67,39.715,39.715,0,0,0,3.69,3.23,0.359,0.359,0,0,0,.114-0.02c0.06-.07.418-0.59,0.679-0.96A17.756,17.756,0,0,1,669.378,2007.28Zm-3.439,5.22c-0.9-.29-4.377-3.65-4.412-3.68a53.383,53.383,0,0,1-11.327-16.28,4.9,4.9,0,0,1-.381-1.18,2.138,2.138,0,0,1,1-1.95c0.2-.13,1.694-0.89,1.864-0.98,2.454-1.27,2.974-1.63,3.485-2.24a2.177,2.177,0,0,0,.5-1.08,5.9,5.9,0,0,0-.28-2.04,31.654,31.654,0,0,0-3.322-7.95,3.035,3.035,0,0,0-1.736-1.14,4.262,4.262,0,0,0-1.528.07,9.659,9.659,0,0,0-3.379,1.89,11.2,11.2,0,0,0-1.774,1.76,11.463,11.463,0,0,0-2.72,6.7,24.389,24.389,0,0,0,.282,4.03,43.4,43.4,0,0,0,8.771,19.07,42.3,42.3,0,0,0,13,11.57c3.552,1.99,5.871,2.8,8.556,2.97a15.485,15.485,0,0,0,3.219-.26,11.546,11.546,0,0,0,3.355-1.36,9.659,9.659,0,0,0,2.773-2.37c1.08-1.33,1.26-2.1,1.2-2.87-0.068-.84-0.6-1.69-1.791-2.82a32.612,32.612,0,0,0-5.875-4.18c-1.375-.77-1.7-0.83-2.27-0.78a4.18,4.18,0,0,0-2.469,1.31,16.787,16.787,0,0,0-1.751,2.07,4.124,4.124,0,0,1-1.331,1.55A2.183,2.183,0,0,1,665.939,2012.5Z" transform="translate(-632 -1966)"/>
</svg>
