<svg xmlns="http://www.w3.org/2000/svg" width="64" height="64" viewBox="0 0 64 64">
  <defs>
    <style>
      .cls-1 {
        fill: #333;
        fill-rule: evenodd;
      }
    </style>
  </defs>
  <path id="Track_RA_SWAP" data-name="Track RA &amp; SWAP" class="cls-1" d="M58.713,57.712a0.993,0.993,0,0,1-1.4,0l-2.976-2.976a10,10,0,1,1,1.4-1.4l2.976,2.976A0.992,0.992,0,0,1,58.713,57.712ZM48,39a8,8,0,1,0,8,8A8,8,0,0,0,48,39ZM19,13a1,1,0,1,1-1-1A1,1,0,0,1,19,13Zm-4,0a1,1,0,1,1-1-1A1,1,0,0,1,15,13Zm-4,0a1,1,0,1,1-1-1A1,1,0,0,1,11,13Zm5,11a1,1,0,0,1,1-1h4a1,1,0,0,1,1,1v1H42a2,2,0,0,1,2,2v6a2,2,0,0,1-2,2H34.469l1.239,1.246a1.037,1.037,0,0,1,0,1.46,1.022,1.022,0,0,1-1.451,0l-2.9-2.92a1.124,1.124,0,0,1-.029-1.52l2.92-2.939a1.028,1.028,0,0,1,1.46,0,1.043,1.043,0,0,1,0,1.469l-1.2,1.2H41a1,1,0,0,0,1-1V28a1,1,0,0,0-1-1H22v1a1,1,0,0,1-1,1H17a1,1,0,0,1-1-1V24Zm2,3h2V25H18v2ZM16,41V35a2,2,0,0,1,2-2h5V32a1,1,0,0,1,1-1h4a1,1,0,0,1,1,1v4a1,1,0,0,1-1,1H24a1,1,0,0,1-1-1V35H19a1,1,0,0,0-1,1v4a1,1,0,0,0,1,1H32.508l-1.214-1.214a1.033,1.033,0,0,1,1.46-1.46l2.92,2.921a1.118,1.118,0,0,1,.029,1.52L32.765,45.7A1.039,1.039,0,0,1,31.3,44.234L32.531,43H18A2,2,0,0,1,16,41Zm9-6h2V33H25v2ZM7,16H53V10H7v6ZM7,51H36l1,2H7a2,2,0,0,1-2-2V10A2,2,0,0,1,7,8H53a2,2,0,0,1,2,2V37l-2-2V18H7V51Z" transform="translate(0 -1)"/>
</svg>
